<?xml version="1.0" standalone="no"?>
<!DOCTYPE svg PUBLIC "-//W3C//DTD SVG 1.1//EN" "http://www.w3.org/Graphics/SVG/1.1/DTD/svg11.dtd" >
<svg xmlns="http://www.w3.org/2000/svg">
<metadata>Generated by IcoMoon</metadata>
<defs>
<font id="icomoon" horiz-adv-x="1024">
<font-face units-per-em="1024" ascent="960" descent="-64" />
<missing-glyph horiz-adv-x="1024" />
<glyph unicode="&#x20;" horiz-adv-x="512" d="" />
<glyph unicode="&#xe900;" glyph-name="pst-prod-next" d="M320.695-2.878c-6.35-6.35-14.288-9.526-23.020-9.526s-16.67 3.175-23.020 9.526c-12.701 12.701-12.701 33.34 0 46.040l404.837 404.837-404.837 404.837c-12.701 12.701-12.701 33.34 0 46.040s33.34 12.701 46.040 0l427.857-427.857c12.701-12.701 12.701-33.34 0-46.040l-427.857-427.857z" />
<glyph unicode="&#xe901;" glyph-name="pst-prod-prev" d="M703.305 898.878c6.35 6.35 14.288 9.526 23.020 9.526s16.67-3.175 23.020-9.526c12.701-12.701 12.701-33.34 0-46.040l-404.837-404.837 404.837-404.837c12.701-12.701 12.701-33.34 0-46.040s-33.34-12.701-46.040 0l-427.857 427.857c-12.701 12.701-12.701 33.34 0 46.040l427.857 427.857z" />
<glyph unicode="&#xe902;" glyph-name="chevron-small-up" d="M336.998 351.181c-13.875-13.722-36.301-13.722-50.074 0s-13.926 35.891 0 49.613l200.090 196.096c13.824 13.722 36.198 13.722 50.125 0l200.090-196.096c13.824-13.67 13.824-35.891 0-49.613-13.875-13.722-36.301-13.722-50.125 0l-175.104 160.819-175.002-160.819z" />
<glyph unicode="&#xe903;" glyph-name="chevron-small-down" d="M687.002 570.419c13.875 13.722 36.301 13.722 50.074 0 13.824-13.722 13.926-35.891 0-49.613l-200.090-196.096c-13.824-13.722-36.198-13.722-50.125 0l-200.090 196.096c-13.824 13.67-13.824 35.891 0 49.613 13.875 13.722 36.301 13.722 50.074 0l175.155-160.819 175.002 160.819z" />
<glyph unicode="&#xe904;" glyph-name="kraltaci" horiz-adv-x="1280" d="M148.302 448.273c-98.565-8.611-156.67 70.073-147.321 145.494 8.716 70.326 79.51 122.040 150.108 108.736 69.776-13.148 125.925-85.174 96.561-173.883 66.296-26.547 132.703-53.139 200.358-80.233 44.984 89.951 89.561 179.083 134.107 268.157-88.364 52.44-83.605 151.047-37.19 201.801 49.74 54.388 135.502 55.615 187.343 3.096 46.35-46.959 58.669-149.313-34.228-205.054 44.39-88.775 88.799-177.586 133.981-267.947 66.998 26.787 133.42 53.346 199.746 79.87-30.571 101.046 38.975 164.981 99.060 174.585 71.172 11.374 139.556-39.695 148.326-109.576 8.701-69.326-43.586-153.553-148.605-145.242-6.376-37.153-12.872-74.421-19.154-111.728-16.25-96.519-32.116-193.1-48.708-289.562-11.251-65.42-63.662-110.326-130.054-110.47-196.992-0.429-393.981-0.408-590.97-0.015-64.802 0.129-114.287 45.753-124.596 109.405-21.555 133.090-44.495 265.958-66.902 398.91-0.159 0.918-0.867 1.74-1.863 3.654z" />
<glyph unicode="&#xe905;" glyph-name="navigate_next" d="M426 682.667l256-256-256-256-60 60 196 196-196 196z" />
<glyph unicode="&#xe906;" glyph-name="keyboard_arrow_left" d="M658 252.667l-60-60-256 256 256 256 60-60-196-196z" />
<glyph unicode="&#xe907;" glyph-name="buggunkargorevize2" horiz-adv-x="1419" d="M820.566 904.472c0 1.811 0.095 3.621-0.064 5.4-1.461 18.361-8.672 33.45-25.159 42.949-10.451 5.972-21.983 7.211-33.768 7.211-232.755-0.032-465.478 0-698.201-0.032-4.479 0-9.022-0.064-13.437-0.699-19.346-2.7-33.8-12.23-41.297-30.782-1.938-4.765-2.891-9.911-4.32-14.899 0-259.248 0-518.464 0-777.713 0.318-1.112 0.54-2.255 0.921-3.367 2.097-6.163 3.399-12.834 6.576-18.425 9.562-16.868 25.159-24.492 43.965-24.715 36.373-0.477 72.746-0.159 109.119-0.159 0.858 0 1.747 0.222 2.573 0.318 12.103 93.172 90.154 161.883 178.021 167.506 43.838 2.827 84.277-8.196 120.364-33.323 46.951-32.656 74.684-77.574 82.975-134.246 0.667-0.127 1.112-0.254 1.525-0.254 73.349 0 146.699-0.222 220.048 0.159 16.265 0.095 30.274 6.735 40.153 20.267 7.624 10.388 10.165 22.364 10.165 35.102-0.159 253.212-0.127 506.457-0.159 759.701zM305.691 566.537c-23.126 0.381-39.264 15.566-39.232 36.309 0.095 21.093 15.534 35.738 39.359 35.865 60.42 0.286 120.904 0.064 181.293 0.064 59.308 0 118.553 0.222 177.894-0.127 24.873-0.127 41.519-17.376 39.137-39.295-2.033-19.918-17.567-32.688-40.947-32.751-99.207-0.191-198.415-0.127-297.622-0.127-19.949 0-39.931-0.222-59.88 0.064zM663.765 347.347c-35.388-0.191-70.776-0.064-106.101-0.064-34.785 0-69.569-0.127-104.354 0.064-24.873 0.191-40.312 14.454-40.248 36.595 0.064 21.728 14.708 35.356 39.168 35.42 70.713 0.191 141.457 0.191 212.17 0 23.952-0.064 39.581-14.327 39.899-35.293 0.318-21.284-16.169-36.532-40.534-36.722zM661.859 785.791c-83.324-0.159-166.648-0.064-250.036-0.064 0.064 0 0.064 0.032 0.064 0.064-83.388 0-166.712-0.064-250.068 0.032-23.285 0.032-37.516 10.96-40.884 30.687-3.844 22.713 12.738 41.265 38.311 41.36 78.75 0.349 157.531 0.222 236.313 0.254 89.042 0 178.052 0.032 267.095-0.064 23.094 0 38.057-11.245 41.265-30.369 4.003-23.38-14.359-41.869-42.059-41.9zM929.462 89.020c-20.331 0.699-35.515 9.276-46.062 25.89-5.845 9.181-8.259 19.346-8.259 30.242 0.032 180.53 0.032 360.997 0 541.495 0 16.9 4.606 31.894 17.885 43.234 9.498 8.069 20.775 12.008 33.037 12.040 84.277 0.159 168.554 0.191 252.799 0 20.49-0.032 36.913-9.752 50.89-24.047 16.137-16.519 29.924-34.943 43.489-53.59 33.069-45.617 66.456-91.043 99.525-136.66 18.171-25.032 33.45-51.748 41.71-81.736 2.923-10.705 4.701-22.046 4.765-33.101 0.381-88.756 0.191-177.512 0.222-266.269 0-15.566-3.208-29.988-14.359-41.71-9.371-9.848-21.157-14.899-34.34-15.343-19.886-0.667-39.804-0.191-60.103-0.191-7.624 57.657-34.626 103.782-83.197 136.247-35.992 24.079-76.113 33.895-119.189 31.513-29.892-1.684-57.752-10.419-83.674-25.477-26.017-15.153-47.428-35.229-64.264-60.23-16.741-24.778-27.033-52.066-30.877-82.308zM1328.261 415.868c-1.62 6.099-2.097 11.976-4.606 16.805-5.845 11.372-11.817 22.872-19.187 33.26-36.722 51.621-73.826 102.956-111.025 154.259-6.163 8.513-15.153 13.088-25.826 13.12-41.424 0.127-82.848 0.064-124.303 0.064-1.461 0-2.923 0-4.574 0 0-72.746 0-145.015 0-217.507 96.19 0 192.062 0 289.522 0zM357.852-64c-68.87 0.032-125.479 56.672-125.574 125.701-0.095 69.156 56.545 125.987 125.669 126.114 69.506 0.095 125.923-56.989 125.828-127.353-0.032-67.854-57.402-124.526-125.923-124.462zM1245.859 61.796c0.127-68.648-56.64-125.51-125.637-125.828-68.966-0.286-126.209 56.989-126.146 126.241 0.064 68.648 57.085 125.542 125.891 125.574 68.934 0.032 125.764-56.862 125.891-125.987z" />
<glyph unicode="&#xe908;" glyph-name="bugun-teslim" horiz-adv-x="1230" d="M0 303.8c6.154 11.295 12.601 20.989 19.793 30.068l-0.33-0.432c8.106 7.409 18.944 11.948 30.842 11.948 1.6 0 3.182-0.082 4.74-0.242l-0.195 0.016h870.511c80.505 0 161.009 0 241.514 0 10.174 0 12.606 3.317 12.385 13.049 0 45.339 0 90.457 0 135.796-0.636 16.309-5.067 31.452-12.426 44.749l0.262-0.515c-39.146 67.456-80.062 133.806-119.872 200.819-5.279 10.35-15.86 17.315-28.067 17.315-0.708 0-1.41-0.023-2.106-0.069l0.094 0.005c-61.263 0-122.526 0-183.789 0h-13.049v-15.924q0-163 0-325.557c0-2.433 0-4.866 0-7.077 0-13.925-11.288-25.213-25.213-25.213s-25.213 11.288-25.213 25.213v0c0 25.213 0 50.426 0 75.639v394.118c0 22.117-9.068 31.848-32.069 31.848h-686.058c-0.331-0.016-0.72-0.025-1.11-0.025-13.803 0-24.992 11.189-24.992 24.992 0 0.164 0.002 0.328 0.005 0.491v-0.024c-0.020 0.362-0.031 0.785-0.031 1.211 0 13.192 10.694 23.886 23.886 23.886 0.79 0 1.57-0.038 2.34-0.113l-0.098 0.008h688.048c1.14 0.062 2.475 0.097 3.819 0.097 41.53 0 75.197-33.667 75.197-75.197 0-1.045-0.021-2.086-0.064-3.12l0.005 0.148c0-20.347 0-40.695 0-61.263v-13.712h200.377c0.845 0.034 1.837 0.054 2.834 0.054 28.132 0 52.625-15.586 65.312-38.595l0.194-0.385 122.747-204.579c11.703-19.267 18.676-42.534 18.799-67.421v-349.477c0.177-1.597 0.278-3.449 0.278-5.325 0-28.216-22.874-51.089-51.089-51.089-1.733 0-3.447 0.086-5.136 0.255l0.213-0.017h-96.65c-17.472-99.083-70.11-152.162-151.057-153.711-1.326-0.042-2.885-0.066-4.45-0.066-41.509 0-79.062 16.941-106.12 44.287l-0.013 0.013c-29.004 28.007-47.086 67.16-47.329 110.538v0.045h-255.005c-0.488-48.239-22.963-91.13-57.866-119.196l-0.301-0.234c-25.975-20.831-59.332-33.432-95.631-33.432-42.042 0-80.137 16.903-107.858 44.285l0.016-0.015c-28.34 27.902-45.976 66.606-46.224 109.431v0.047h-38.262c-34.060 0-68.119 1.106-101.958 0-2.742-0.463-5.901-0.728-9.122-0.728-26.351 0-48.562 17.725-55.362 41.902l-0.097 0.405zM51.753 141.021h154.816c7.298 0 9.289 3.76 11.722 9.068 23.899 55.275 77.956 93.252 140.883 93.252s116.983-37.977 140.501-92.262l0.382-0.991c1.699-5.088 6.42-8.691 11.983-8.691 0.453 0 0.901 0.024 1.342 0.071l-0.055-0.005h255.889c0.425-0.056 0.916-0.087 1.415-0.087 5.119 0 9.457 3.345 10.948 7.968l0.023 0.081c23.589 55.985 78.006 94.572 141.436 94.572s117.847-38.587 141.059-93.567l0.377-1.005c1.342-4.432 5.391-7.602 10.179-7.602 0.466 0 0.925 0.030 1.375 0.088l-0.053-0.006h102.621v151.72h-1126.842zM921.6-13.795c0.263-0.002 0.573-0.004 0.884-0.004 56.676 0 102.621 45.945 102.621 102.621s-45.945 102.621-102.621 102.621c-56.519 0-102.367-45.691-102.62-102.151v-0.024c0.242-56.191 45.415-101.752 101.433-102.62l0.082-0.001zM358.732 191.226c-56.578-0.129-102.394-46.025-102.394-102.621 0-56.676 45.945-102.621 102.621-102.621s102.621 45.945 102.621 102.621c0 0.389-0.002 0.777-0.006 1.165l0.001-0.059c0 0.068 0 0.149 0 0.23 0 56.188-45.549 101.737-101.737 101.737-0.467 0-0.933-0.003-1.398-0.009l0.071 0.001zM987.286 497.099h-86.255c-20.126 0-29.194 9.289-29.194 29.415 0 51.311 0 102.4 0 153.711-0.087 0.792-0.137 1.71-0.137 2.639 0 14.047 11.387 25.434 25.434 25.434 1.14 0 2.263-0.075 3.363-0.22l-0.129 0.014h69.667c0.574 0.040 1.243 0.064 1.918 0.064 10.648 0 19.955-5.745 24.99-14.304l0.074-0.136 101.073-157.249c2.736-3.973 4.37-8.889 4.37-14.187 0-13.925-11.288-25.213-25.213-25.213-0.448 0-0.893 0.012-1.336 0.035l0.062-0.003c-30.3-1.327-59.494 0-88.688 0zM1029.529 548.188c-23.222 36.492-44.233 70.773-66.35 104.833-1.893 2.289-4.607 3.839-7.686 4.197l-0.055 0.005c-10.174 0-20.568 0-31.406 0v-109.256zM332.855 755.642h-175.385c-0.987-0.136-2.128-0.213-3.286-0.213-12.953 0-23.644 9.682-25.231 22.204l-0.013 0.126c-0.241 1.298-0.379 2.791-0.379 4.316 0 13.68 11.090 24.771 24.771 24.771 0.834 0 1.659-0.041 2.472-0.122l-0.103 0.008h353.866c0.938 0.12 2.022 0.189 3.123 0.189 13.032 0 23.813-9.633 25.613-22.167l0.016-0.139c2.875-16.366-9.952-29.194-29.415-29.194h-175.385zM385.714 651.915h124.738c0.695 0.068 1.502 0.107 2.318 0.107 13.925 0 25.213-11.288 25.213-25.213 0-0.816-0.039-1.624-0.115-2.42l0.008 0.102c-1.926-12.679-12.75-22.282-25.817-22.282-1.034 0-2.054 0.060-3.056 0.177l0.122-0.012h-250.581c-0.596-0.049-1.29-0.077-1.991-0.077-14.118 0-25.573 11.404-25.655 25.504v0.008c0 0.042 0 0.092 0 0.141 0 13.803 11.189 24.992 24.992 24.992 0.935 0 1.858-0.051 2.766-0.151l-0.112 0.010zM435.034 448h-73.648c-0.932-0.122-2.010-0.192-3.104-0.192-13.925 0-25.213 11.288-25.213 25.213 0 0.223 0.003 0.445 0.009 0.667l-0.001-0.033c-0.005 0.191-0.008 0.416-0.008 0.641 0 13.436 10.892 24.328 24.328 24.328 1.095 0 2.172-0.072 3.229-0.212l-0.124 0.013h148.845c0.863 0.106 1.862 0.166 2.875 0.166 13.783 0 24.96-11.158 24.992-24.934v-0.003c0-0.041 0-0.089 0-0.138 0-14.169-11.486-25.655-25.655-25.655-0.935 0-1.858 0.050-2.767 0.148l0.113-0.010z" />
<glyph unicode="&#xe909;" glyph-name="iade" horiz-adv-x="999" d="M900.037 781.725c5.594 32.299 10.105 57.561 14.255 83.003 3.248 19.488 11.729 35.186 33.923 31.036s25.983-20.209 22.375-40.599c-7.939-44.569-14.616-90.22-22.375-134.067-5.955-33.562-13.533-39.516-46.554-34.464-46.734 6.857-93.107 14.796-139.661 22.555-18.044 2.887-29.773 12.27-27.968 31.577s18.044 26.886 36.088 24.179c23.818-3.248 47.456-7.218 76.326-11.548-4.599 6.761-9.224 12.647-14.212 18.2l0.138-0.156c-135.872 126.308-293.757 166.366-469.145 105.016s-278.961-191.087-301.516-376.76c-1.972-15.899-3.098-34.302-3.098-52.968 0-250.93 203.419-454.349 454.349-454.349 194.070 0 359.721 121.675 424.828 292.9l1.042 3.121c2.887 7.759 4.15 18.044 9.744 22.375 9.563 6.315 24.359 13.713 32.84 10.285s14.074-18.044 18.044-29.953c1.624-5.774-3.789-13.894-6.496-20.751-80.837-214.002-300.614-354.024-521.473-332.191-240.166 23.638-422.953 190.726-463.552 424.216-4.535 25.599-7.128 55.070-7.128 85.146 0 282.82 229.271 512.090 512.090 512.090 137.569 0 262.468-54.246 354.474-142.516l-0.178 0.17c9.563-9.383 18.405-19.848 32.84-35.547zM216.348 437.444c0 51.786 0 103.573 0 155.359-0.208 1.552-0.327 3.345-0.327 5.167 0 17.422 10.877 32.304 26.211 38.224l0.28 0.095q128.835 60.808 256.947 124.143c6.75 3.868 14.837 6.149 23.457 6.149s16.708-2.281 23.692-6.272l-0.234 0.123q129.015-63.876 259.293-126.308c14.177-5.516 24.041-19.056 24.041-34.899 0-1.436-0.081-2.853-0.239-4.247l0.016 0.171q0-159.69 0-319.199c0.116-1.111 0.182-2.4 0.182-3.705 0-16.030-10.001-29.724-24.104-35.182l-0.257-0.088c-87.333-42.043-174.306-85.168-262.18-126.308-6.056-2.545-13.095-4.024-20.48-4.024s-14.424 1.479-20.838 4.156l0.358-0.132c-87.153 40.599-173.042 83.724-259.834 124.865-15.686 5.856-26.653 20.712-26.653 38.129 0 1.761 0.112 3.496 0.33 5.198l-0.021-0.202c1.083 53.23 0.361 106.099 0.361 158.788zM495.309 172.918c0 92.566 0 179.538 0 266.511-2.397 10.157-9.013 18.429-17.851 23.005l-0.193 0.091c-61.891 31.036-124.324 60.989-186.756 90.22-5.682 2.427-12.88 4.949-20.253 7.056l-1.4 0.342c0-90.22 0-177.193 0-263.984 0.548-7.974 4.746-14.864 10.92-19.071l0.087-0.056c70.011-34.103 140.563-68.026 215.446-104.114zM644.714 500.057c-28.149-13.533-50.884-25.442-74.702-36.088-12.611-3.999-21.59-15.6-21.59-29.299 0-1.504 0.108-2.982 0.317-4.428l-0.020 0.165c1.083-57.2 0-114.58 0-171.779v-86.611c75.965 36.99 147.239 71.094 217.792 106.64 5.774 2.887 9.383 14.977 9.563 22.916 1.083 35.005 0 70.191 0 105.377v155.359c-9.661-5.032-21.567-10.263-33.817-14.784l-2.272-0.734c-26.522-4.442-46.483-27.227-46.483-54.674 0-5.135 0.699-10.106 2.006-14.824l-0.092 0.389c0.906-13.247 1.422-28.712 1.422-44.298s-0.516-31.050-1.532-46.379l0.11 2.080c0-18.946-5.233-35.005-26.525-34.645s-26.344 16.059-25.983 35.186c2.165 35.727 1.804 70.733 1.804 110.43zM614.58 544.806c-72.176 34.825-139.661 68.026-207.687 100.505-3.354 1.617-7.293 2.561-11.453 2.561-3.338 0-6.534-0.608-9.483-1.72l0.185 0.061c-26.886-11.909-53.050-25.262-83.003-39.877 72.176-34.825 139.481-68.026 207.507-100.505 3.435-1.636 7.465-2.592 11.718-2.592 3.235 0 6.34 0.553 9.227 1.569l-0.195-0.060c26.886 11.909 53.050 25.442 83.183 40.058zM740.889 606.517c-61.169 29.592-121.436 54.132-176.651 87.153-41.321 24.54-70.011 8.12-106.099-14.074 72.176-35.005 140.563-68.567 209.311-101.227 2.224-0.739 4.783-1.165 7.443-1.165 3.856 0 7.504 0.896 10.744 2.492l-0.143-0.064c17.864 7.759 35.005 16.601 55.756 26.886z" />
<glyph unicode="&#xe90a;" glyph-name="kargo" horiz-adv-x="1196" d="M-0.19 778.213c5.546 5.017 11.761 9.48 18.446 13.198l0.51 0.261 379.119 165.106c3.549 1.939 7.774 3.079 12.266 3.079 6.394 0 12.249-2.311 16.774-6.144l-0.038 0.031c51.371-37.912 103.12-75.824 154.491-112.788 2.169-2.213 5.19-3.584 8.53-3.584s6.361 1.372 8.528 3.582l0.002 0.002c50.802 37.912 101.983 74.118 151.648 111.461 4.833 4.224 11.201 6.801 18.171 6.801 4.725 0 9.173-1.184 13.065-3.272l-0.148 0.073q189.559-83.217 380.446-165.675c20.472-8.72 21.799-24.453 3.602-37.912l-152.785-111.082 9.478-7.393c53.456-38.86 106.912-77.909 160.557-116.579 7.203-5.308 13.459-10.805 12.321-20.852s-8.341-14.027-16.681-17.629c-52.698-22.747-105.395-45.873-158.282-68.431-7-2.011-12.035-8.357-12.035-15.878 0-0.617 0.034-1.226 0.1-1.825l-0.007 0.074c0-88.903 0-177.617 0-266.331 0.058-0.627 0.092-1.355 0.092-2.091 0-10.582-6.882-19.557-16.415-22.693l-0.169-0.048q-191.645-81.321-382.72-163.211c-3.607-1.747-7.845-2.767-12.321-2.767s-8.714 1.021-12.494 2.842l0.172-0.075q-190.886 81.511-381.583 162.832c-9.954 3.387-16.988 12.652-16.988 23.561 0 0.848 0.043 1.687 0.126 2.513l-0.008-0.104c0 86.629 0 173.447 0 260.265 0.148 0.913 0.233 1.965 0.233 3.036 0 9.050-6.040 16.69-14.309 19.107l-0.141 0.035c-51.939 21.799-103.499 44.357-154.87 67.294-7.246 3.896-13.479 8.498-18.973 13.855l0.017-0.017v11.563c4.281 5.030 8.807 9.556 13.67 13.698l0.168 0.139c37.912 27.676 75.824 54.972 113.736 82.269l48.717 35.637c-33.931 24.643-66.914 48.338-99.708 72.601-25.591 18.956-50.612 37.912-75.824 56.868zM224.059 387.151c0-84.164 0-165.864 0-247.565 0-3.223 4.929-8.151 8.53-9.857q168.329-72.222 336.658-143.686c2.654-1.137 5.687-1.896 8.341-2.843v442.053l-9.099-7.203c-47.011-34.121-94.78-68.052-140.653-102.552-4.66-3.892-10.714-6.256-17.321-6.256-4.695 0-9.111 1.193-12.961 3.294l0.142-0.071c-34.121 15.165-68.241 29.95-102.552 44.736zM947.608 634.716l-12.89 5.687-325.474 139.516c-3.381 1.66-7.359 2.631-11.563 2.631s-8.182-0.971-11.721-2.7l0.158 0.070q-122.645-52.887-245.29-105.205l-92.884-39.807c3.412-1.706 5.308-3.033 7.393-3.791q166.623-71.274 333.435-142.17c2.817-1.075 6.075-1.698 9.478-1.698s6.661 0.623 9.666 1.761l-0.188-0.062c72.033 30.33 143.686 61.228 215.529 91.936zM617.016 427.338v-445.275c3.033 1.137 5.308 1.706 7.393 2.654q169.466 72.222 338.743 144.444c7.393 3.033 8.341 7.393 8.341 14.217q0 116.579 0 233.537c0 3.223 0 6.445 0 10.615l-13.838-5.687c-52.318-22.747-104.826-45.305-156.955-68.621-3.902-2.104-8.54-3.341-13.467-3.341-7.182 0-13.75 2.628-18.796 6.974l0.038-0.032c-50.044 37.343-99.898 73.17-151.268 110.513zM560.148 459.563c-1.27 0.86-2.758 1.742-4.299 2.536l-0.25 0.117-341.207 145.771c-1.743 0.835-3.788 1.323-5.948 1.323-3.808 0-7.261-1.517-9.789-3.98l0.003 0.003-133.829-97.434c-2.654-1.896-5.118-4.17-8.151-6.635 2.275-1.327 3.412-2.275 4.739-2.843q169.466-73.739 338.932-146.909c1.37-0.354 2.943-0.557 4.563-0.557 3.561 0 6.893 0.982 9.74 2.69l-0.086-0.048q69.189 49.665 137.81 100.087c3.223 2.275 5.497 3.791 7.961 5.876zM56.678 767.787l8.909-7.014c43.978-32.036 88.145-63.882 132.692-96.296 3.024-2.587 6.981-4.162 11.307-4.162 3.161 0 6.125 0.841 8.682 2.311l-0.085-0.045 333.056 142.549c3.033 1.327 5.876 3.033 9.668 4.929-47.39 34.5-93.642 67.862-139.516 101.793-3.98 3.703-9.334 5.976-15.219 5.976-3.943 0-7.648-1.020-10.865-2.811l0.114 0.058c-54.404-24.643-109.565-47.959-164.348-71.843zM635.593 460.321l4.549-3.412c46.821-34.121 93.642-68.431 140.843-101.983 2.558-1.373 5.597-2.179 8.824-2.179 2.415 0 4.725 0.452 6.849 1.275l-0.129-0.044q167.571 71.843 334.572 145.013c2.854 1.496 5.272 3.006 7.569 4.671l-0.177-0.122c-47.2 34.31-93.453 67.673-139.516 101.604-3.063 2.727-7.124 4.393-11.573 4.393-3.054 0-5.924-0.785-8.421-2.164l0.090 0.045q-123.403-53.266-246.427-105.964zM625.357 814.418l6.824-3.602q169.466-72.601 338.743-144.444c1.602-0.489 3.442-0.77 5.349-0.77 3.706 0 7.163 1.063 10.084 2.902l-0.079-0.046c42.461 30.14 84.544 61.038 126.626 91.557 2.654 1.896 5.118 4.17 8.53 7.014l-14.975 6.824c-101.793 44.357-204.155 87.766-305.191 132.692-23.316 10.615-40.755 11.563-58.384-7.203-3.082-2.695-6.489-5.198-10.101-7.398l-0.325-0.184z" />
<glyph unicode="&#xe90b;" glyph-name="motortrim" horiz-adv-x="1355" d="M1344.491 286.777c-10.407-23.872-22.916-26.463-42.244-8.708-110.186 101.117-287.423 68.134-352.816-65.904-3.462-7.072-5.14-15.632-5.373-23.554-0.722-22.555-0.255-45.132-0.319-67.709-0.064-22.407-6.223-28.715-28.587-28.715-134.993-0.064-269.986-0.276-405 0.319-14.23 0.064-19.37-3.356-22.492-17.925-17.543-82.3-90.901-140.175-173.541-138.582-84.806 1.635-154.575 60.297-171.014 143.764-0.743 3.759-1.699 7.476-2.846 12.382-34.067 0-67.815 0.276-101.606-0.149-12.488-0.149-22.003 3.653-27.886 15.016 0 12.149 0 24.297 0 36.467 3.271 16.948 5.862 34.067 9.918 50.845 18.924 78.604 60.169 144.21 117.726 200.195 7.688 7.497 16.141 10.407 26.846 10.407 105.046-0.276 210.093 0.064 315.139-0.595 8.474-0.064 18.881-4.396 25.062-10.237 71.043-67.072 113.159-149.201 125.669-246.283 0.382-3.016 0.913-6.032 1.529-8.984 0.255-1.253 0.913-2.4 1.657-4.205 88.65 0 177.406 0 267.734 0 0 5.841 0 10.917 0 15.993 0 93.769 0.616 187.537-0.51 281.285-0.234 19.030-3.972 39.313-11.448 56.707-24.573 57.259-62.208 103.878-118.851 133.124-17.246 8.878-29.692 22.577-36.318 40.842-2.612 7.264-6.138 10.471-13.89 9.6-5.586-0.637-11.32-0.488-16.906 0-11.511 0.977-18.286 7.412-19.412 18.987-1.083 11.129 6.605 23.086 17.373 21.642 23.044-3.058 33.175 8.368 44.601 26.251 17.118 26.846 51.822 37.529 81.981 27.037 115.644-40.162 198.879-112.777 230.503-235.452 11.193-43.348 11.023-87.631 10.747-131.934-0.042-9.897 0-19.816 0-29.479 23.278 3.292 45.26 8.028 67.454 9.175 74.781 3.887 139.793-20.601 194.822-71.234 5.161-4.779 8.241-11.809 12.297-17.798 0-0.871 0-1.742 0-2.591zM591.326 134.9c-10.513 86.059-44.729 158.674-103.878 219.629-6.265 6.457-12.658 9.048-21.621 9.005-96.36-0.276-192.741 0-289.122-0.573-6.775-0.042-15.101-3.887-20.007-8.708-32.155-31.709-56.877-68.792-75.036-110.101-15.271-34.661-25.21-70.788-28.991-109.952 28.332 0 55.666-0.319 82.894 0.488 2.804 0.064 7.115 6.393 7.858 10.343 14.952 79.73 84.126 141.322 162.688 144.317 87.291 3.334 160.076-49.295 181.76-131.531 1.975-7.497 3.589-15.079 5.607-23.639 28.396 0 56.537-0.021 84.678 0.042 3.865 0.021 7.667 0.382 13.168 0.68zM451.873 111.941c1.147 74.059-58.151 135.035-132.211 136.012-74.059 0.998-135.672-57.429-137.032-129.917-1.444-77.606 56.813-138.030 134.292-139.283 73.443-1.211 133.825 58.385 134.95 133.188zM943.739 286.416c24.977 24.148 50.654 45.132 80.261 61.337 2.57 1.402 4.779 6.117 4.757 9.26-0.276 38.166 0.786 76.438-1.933 114.413-9.515 132.805-93.408 214.574-207.353 254.694-15.292 5.373-28.481 0.935-38.697-12.064 6.435 0 11.851 0 17.288 0 22.279 0.021 32.665-6.478 32.856-20.623 0.191-14.272-10.407-21.196-32.325-21.132-6.626 0-13.253 0-19.879 0-0.276-1.104-0.552-2.209-0.828-3.313 5.097-3.759 9.833-8.092 15.292-11.15 66.817-37.338 112.522-93.047 139.326-163.877 7.306-19.37 10.11-41.309 10.747-62.187 1.529-48.403 0.488-96.912 0.488-145.357zM270.368 873.835c-13.083 12.552-26.293 24.955-39.164 37.677-11.533 11.405-12.488 23.851-3.058 32.899 9.324 8.963 20.708 7.964 32.007-3.292 20.517-20.432 40.842-41.097 62.038-62.442 21.94 22.003 42.605 43.008 63.589 63.695 12.127 11.915 28.035 10.152 34.683-3.611 4.757-9.855 2.145-18.393-5.565-25.869-13.571-13.125-26.973-26.421-40.481-39.631 0.51-0.956 1.019-1.911 1.55-2.867 15.016 0 30.010 0 45.026 0 35.596 0 71.192 0.064 106.788-0.021 40.608-0.127 66.434-26.102 66.477-66.987 0.064-92.473 0.064-184.946 0-277.398-0.021-39.185-25.678-65.564-64.948-65.946-47.744-0.488-95.51-0.191-143.255-0.191-86.378 0-172.776-0.064-259.154 0.106-10.364 0.021-21.069 0.085-31.008 2.485-26.378 6.393-45.727 30.562-45.833 58.003-0.361 96.381-0.467 192.741 0.064 289.122 0.191 34.194 27.483 60.36 62.081 60.679 47.744 0.467 95.51 0.149 143.255 0.149 4.29 0 8.559 0 12.849 0 0.68 1.147 1.381 2.294 2.060 3.441zM91.56 744.513c0-6.542 0-12.064 0-17.628 0-65.5 0.021-131 0.042-196.479 0.021-22.343 6.117-28.672 28.523-28.693 134.908-0.085 269.794-0.106 404.702-0.021 21.6 0 27.993 6.52 27.971 27.886-0.021 68.537-0.127 137.074-0.234 205.59 0 2.931-0.276 5.841-0.446 9.345-153.407 0-305.943 0-460.56 0zM551.716 787.542c3.101 28.141 1.657 42.265-35.745 41.543-67.199-1.338-134.441-0.382-201.64-0.382-65.054 0-130.108 0-195.162 0-21.047 0-27.716-6.796-27.568-28.205 0.021-4.184 0.467-8.347 0.722-12.956 153.534 0 306.028 0 459.392 0zM1149.414-63.044c-97.698 0.51-176.281 79.687-175.431 176.748 0.85 99.312 79.263 176.344 178.999 175.856 96.317-0.467 174.199-80.749 173.52-178.829-0.68-96.423-80.027-174.284-177.088-173.775zM1149.138-21.374c75.673-0.234 135.609 59.468 135.694 135.184 0.064 73.847-59.957 133.761-134.207 134.016-74.314 0.234-134.398-59.086-134.908-133.251-0.552-75.164 58.852-135.672 133.421-135.949z" />
<glyph unicode="&#xe90c;" glyph-name="bugnteslimrevize2" horiz-adv-x="1014" d="M51.979 743.055l94.906-43.375 440.514 208.6c3.206 1.556 5.21 4.809 5.163 8.345s-2.169 6.742-5.398 8.18l-77.65 34.417c-2.334 1.037-4.998 1.037-7.378 0l-450.061-199.571c-3.277-1.462-5.398-4.691-5.422-8.251-0.024-3.583 2.074-6.86 5.328-8.345v0zM965.020 751.4c0 3.583-2.145 6.813-5.398 8.274l-156.527 69.376c-2.452 1.108-5.233 1.037-7.638-0.094l-451.876-215.837 158.46-75.717c1.202-0.519 2.499-0.825 3.795-0.825s2.569 0.283 3.772 0.825l450.108 205.7c3.253 1.438 5.328 4.715 5.304 8.298v0zM585.254 263.197c-1.32 0.306-2.664 0.471-4.055 0.471h-63.554l-72.394 85.595c-2.546 3.041-5.893 4.95-9.476 5.752-5.186 1.202-10.867 0.024-15.275-3.654-7.378-6.27-8.321-17.326-2.051-24.776l77.721-91.842c1.532-1.839 3.465-3.3 5.61-4.361 2.381-1.202 5.045-1.886 7.826-1.886h71.663c9.712 0 17.539 7.897 17.539 17.586-0.047 8.321-5.823 15.252-13.555 17.114v0zM316.165 257.021c0 97.428 73.006 177.625 167.252 189.341v44.341c0 3.56-2.074 6.813-5.304 8.298l-169.020 78.051v-238.279c0-2.239-1.155-4.314-3.041-5.493-1.061-0.636-2.263-0.99-3.465-0.99-0.943 0-1.933 0.212-2.805 0.613l-179.086 84.84c-2.287 1.108-3.701 3.395-3.701 5.893v239.835l-104.1 48.16c-2.805 1.297-6.082 1.037-8.699-0.613-2.617-1.674-4.196-4.573-4.196-7.661v-542.869c0-3.56 2.074-6.813 5.328-8.298l465.195-212.655c1.202-0.519 2.499-0.801 3.795-0.801 1.721 0 3.442 0.495 4.903 1.438 2.617 1.674 4.196 4.55 4.196 7.661v119.847c-94.246 11.692-167.252 91.959-167.252 189.341zM1007.475 710.995c-2.593 1.674-5.893 1.909-8.699 0.613l-465.195-212.631c-3.23-1.485-5.328-4.715-5.328-8.298v-43.941c95.495-10.514 169.846-91.441 169.846-189.741 0-98.324-74.327-179.204-169.846-189.718v-119.493c0-3.088 1.556-5.988 4.172-7.661 1.485-0.919 3.23-1.438 4.95-1.438 1.249 0 2.546 0.283 3.772 0.825l465.172 212.631c3.253 1.485 5.328 4.738 5.328 8.321v542.893c0.024 3.065-1.579 5.988-4.172 7.638z" />
<glyph unicode="&#xe90d;" glyph-name="play-outline" d="M150.016 98.816c-96.436 93.233-156.308 223.762-156.308 368.276 0 282.77 229.23 512 512 512 144.514 0 275.043-59.872 368.137-156.164l0.138-0.144c88.925-91.979 143.724-217.436 143.724-355.692 0-282.77-229.23-512-512-512-138.256 0-263.713 54.799-355.836 143.863l0.144-0.138zM801.792 171.008c74.164 74.164 120.036 176.621 120.036 289.792 0 226.342-183.486 409.828-409.828 409.828-113.171 0-215.628-45.872-289.792-120.036v0c-74.164-74.164-120.036-176.621-120.036-289.792 0-226.342 183.486-409.828 409.828-409.828 113.171 0 215.628 45.872 289.792 120.036v0zM358.4 665.6l409.6-204.8-409.6-204.8v409.6z" />
<glyph unicode="&#xe90e;" glyph-name="compare" d="M896 448v-64c0-35.264-28.736-64-64-64h-448.128l0.128 128-256-192 256-192-0.128 128h448.128c105.888 0 192 86.24 192 192v64h-128zM128 512c0 35.36 28.736 64 64 64h448v-128l255.744 192-255.744 192v-128h-448c-105.888 0-192-86.016-192-192v-64h128v64z" />
<glyph unicode="&#xe90f;" glyph-name="sonadet" horiz-adv-x="994" d="M986.625 133.008c-26.651 44.913-53.749 89.567-80.53 134.438-28.28 47.407-49.886 98.043-54.181 153.060-4.901 62.873-3.719 126.178-5.794 189.282-4.641 140.535-66.116 249.676-192.943 310.488-9.917 4.742-17.83 9.729-24.878 14.889-4.295 1.758-8.346 3.82-12.252 6.039-2.566 0.894-5.088 1.672-7.74 2.739-4.036 1.643-7.928 3.445-11.848 5.362-0.908 0.447-1.196 0.605-1.758 0.922-1.456 0.49-2.767 1.182-4.151 1.802-2.292 0.649-4.569 1.297-6.688 2.148-2.969 0.303-5.693 0.577-6.457 0.649-7.481 0.807-14.5 2.364-21.621 3.776-0.346 0-0.649-0.086-0.995-0.086-3.301 0-6.241 0.548-9.311 0.922v-0.014h-97.437c0 0.187 0 0.389-0.014 0.577-3.603-0.721-7.567-0.966-11.56-1.153-3.459-0.966-7.106-1.686-10.897-2.205-2.739-0.822-5.593-1.47-8.533-2.018-3.892-1.499-8.475-2.076-12.958-2.782-1.6-0.75-3.56-1.009-5.261-1.614-4.382-2.724-9.268-4.915-14.63-6.515-2.753-2.061-5.852-4.007-10.104-5.693-119.635-47.522-197.368-133.818-219.94-261.106-10.637-60.005-7.985-122.705-8.072-184.165-0.072-83.355-20.727-160.224-63.623-231.414-24.95-41.396-50.535-82.433-74.13-124.607-6.111-10.954-11.041-27.934-6.63-37.678 3.56-7.884 21.923-12.583 33.772-12.699 95.189-0.951 190.378-0.476 285.581-0.447 17.008 0.014 34.002 0 51.097 0-3.358-57.093 9.34-93.992 45.202-120.975 16.388-12.324 36.669-19.459 55.176-28.943h46.859c80.054 33.368 105.408 70.599 100.45 149.932h25.383c104.572-0.043 209.159-0.115 313.731-0.115 35.444 0.029 45.548 17.080 27.689 47.205zM533.931-3.491c-27.3-16.259-63.003-12.915-86.987 8.144-24.028 21.087-31.465 51.025-19.156 81.236 41.339 0 83.326 0.533 125.299-0.62 5.809-0.159 14.918-7.769 16.432-13.535 7.063-26.839-9.326-59.587-35.588-75.226zM66.577 137.764c18.781 31.379 35.386 60.149 53.014 88.285 41.714 66.563 68.984 138.488 74.202 216.899 3.719 55.969 1.831 112.312 2.263 168.497 0.966 122.849 74.692 231.572 188.201 277.336 195.278 78.714 409.511-64.603 411.629-275.16 0.605-60.841-0.259-121.811 3.964-182.436 5.016-71.997 31.379-137.839 69.057-199.213 18.579-30.269 36.467-60.956 56.329-94.209h-858.659zM175.373 450.458c0 0-50.203 442.028 213.8 456.528s216.207 57.035 355.545-94.31 74.476-142.034 74.476-230.924 4.367-267.506 45.634-290.827 60.062-175.387 105.696-170.587-898.456 2.277-898.456 2.277h-14.414l-19.214-12.021c0 0 127.317 297.76 136.931 339.863zM577.734 55.966c0-48.75-39.52-88.27-88.27-88.27s-88.27 39.52-88.27 88.27c0 48.75 39.52 88.27 88.27 88.27s88.27-39.52 88.27-88.27z" />
<glyph unicode="&#xe910;" glyph-name="yeniurun" horiz-adv-x="1282" d="M233.351 959.844c42.884 0.022 85.791 0.245 128.676-0.044 61.502-0.4 114.752-22.532 158.059-65.483 158.481-157.213 316.228-315.161 474.198-472.886 41.283-41.216 41.528-93.487 0.512-134.526-106.9-107.055-213.844-214.044-320.922-320.922-40.527-40.482-92.82-40.193-133.458 0.467-159.149 159.126-318.586 317.963-477.245 477.623-40.571 40.838-61.569 91.997-62.414 149.451-1.379 92.219-0.489 184.483-0.334 276.725 0.089 51.070 37.746 89.039 89.039 89.484 47.956 0.4 95.912 0.111 143.89 0.111zM302.149 740.618c-0.334 51.27-36.679 88.327-86.258 88.038-47.8-0.311-85.635-38.814-85.213-86.792 0.4-47.889 38.525-85.191 86.926-84.968 47.378 0.2 84.879 37.346 84.546 83.723zM787.513-22.739c5.672 3.559 10.699 5.605 14.236 9.12 100.405 100.472 200.654 201.077 300.925 301.682 40.794 40.949 40.727 91.997-0.356 132.991-159.638 159.304-319.32 318.519-479.003 477.735-28.249 28.16-63.57 43.396-101.028 54.629-4.382 1.312-8.853 2.313-13.257 3.537-0.267 0.089-0.356 0.823-1.134 2.914 16.549 0 32.497 0.378 48.423-0.089 35.433-0.979 71.378 1.023 106.143-4.426 45.843-7.229 85.836-29.361 119.178-62.658 156.635-156.39 312.892-313.203 470.506-468.593 40.393-39.815 41.683-98.559 0.289-138.952-107.901-105.343-213.555-212.954-319.854-319.921-23.244-23.4-50.403-32.453-82.855-28.182-25.557 3.292-40.46 22.065-62.214 40.215z" />
<glyph unicode="&#xe911;" glyph-name="kargobedava" horiz-adv-x="858" d="M0 632.352v-181.659h322.945v181.659zM857.831 450.694v181.659h-322.945v-181.659zM50.463 410.333v-454.153h272.482v454.153zM807.368-43.82v454.153h-272.482v-454.153zM199.388 805.526c-13.437 24.112-12.877 48.248 1.68 71.8 9.182 14.88 22.109 22.109 39.489 22.109 47.763 0 126.406-57.99 157.236-181.845-83.532-3.409-168.695 34.687-198.405 87.937v0zM627.339 899.447c17.368 0 30.32-7.229 39.514-22.109 14.544-23.564 15.116-47.701 1.667-71.8-29.71-53.237-114.786-91.358-198.393-87.912 30.818 123.818 109.461 181.82 157.211 181.82v0zM406.365 322.633l54.668 26.040c-66.214 139.084-39.776 244.265-18.762 293.782 2.65 6.221 5.201 11.608 7.49 16.025 10.127-0.983 20.367-1.655 30.631-1.655 102.755 0 201.901 49.032 241.005 119.215 24.236 43.446 23.141 90.711-2.998 133.112-20.305 32.796-52.603 50.849-91.060 50.849-82.96 0-153.454-73.305-193.379-163.93-39.937 90.624-110.431 163.93-193.404 163.93-38.432 0-70.755-18.053-90.997-50.849-26.189-42.401-27.259-89.666-3.036-133.112 38.556-69.162 135.339-117.647 236.476-119.065-1.779-4.529-3.509-9.443-5.225-14.519-22.494-66.512-38.382-179.195 28.591-319.822v0z" />
<glyph unicode="&#xe912;" glyph-name="motokurye" horiz-adv-x="1301" d="M0 92.617c12.329-21.876 28.9-36.679 55.938-29.254 26.024 7.143 30.362 27.839 31.894 51.719 7.473 113.691 100.019 199.025 212.249 196.927 108.883-2.051 197.987-90.331 202.749-200.84 1.485-34.369 15.346-49.597 49.621-49.762 109.778-0.613 219.557-0.589 329.358 0.094 32.342 0.189 46.721 15.794 48.89 48.065 9.358 140.116 128.071 227.948 263.638 194.64 22.701-5.563 45-8.51 60.276 12.776 14.78 20.626 4.314 40.545-7.803 58.72-101.41 151.997-203.126 303.782-304.136 456.038-11.999 18.104-26.826 25.718-47.971 25.459-47.169-0.566-94.385 0.189-141.554-0.33-29.749-0.306-47.735-16.619-48.206-41.889-0.471-25.364 17.067-42.95 46.721-44.246 27.863-1.226 55.844-0.754 83.754-0.189 14.097 0.283 22.158-2.546 26.519-18.67 35.006-128.778 71.496-257.132 106.431-385.909 2.051-7.543-2.947-19.683-8.675-26.213-20.178-23.078-41.842-44.883-63.552-66.593-4.903-4.903-12.234-10.513-18.457-10.561-94.197-0.66-188.417-0.471-284.782-0.471 0 56.834 0 111.145 0 170.407 18.292 0 37.104-0.589 55.867 0.141 34.463 1.367 45.778 17.137 45.519 61.973-0.236 38.447-13.271 54.995-46.603 55.042-176.23 0.377-352.483 0.354-528.713 0-35.053-0.071-48.796-17.962-48.583-59.828 0.212-39.366 14.379-56.174 48.678-56.787 31.776-0.519 63.529-0.471 95.328-0.731 0.825 0 1.65-0.825 4.974-2.546 4.738-22.041 6.765-37.716-24.681-49.621-105.017-39.72-169.111-116.544-189.619-228.090-1.131-6.388-3.347-12.682-5.068-19.023 0-13.484 0-26.967 0-40.451zM1300.556 63.717c-2.569-7.025-5.351-14.002-7.685-21.098-22.606-68.88-87.337-111.806-160.059-106.101-68.738 5.398-126.986 60.629-137.83 130.711-10.608 68.502 29.678 137.853 95.352 164.161 66.97 26.873 142.521 4.337 182.759-56.527 11.857-17.939 18.457-39.343 27.486-59.144-0.024-17.326-0.024-34.652-0.024-52.001zM1148.134 12.446c40.993 0.259 77.106 37.693 75.904 78.662-1.202 40.168-36.868 75.221-76.682 75.409-40.969 0.141-77.625-36.608-77.342-77.601 0.306-41.441 36.373-76.753 78.12-76.47zM304.301 959.929c-20.909-23.361 19.448-73.924-39.531-69.681-49.621 3.559-11.857 45.778-33.756 69.445-38.777 0-84.555 0.99-130.169-1.108-6.765-0.306-18.316-15.181-18.434-23.431-1.297-95.328-1.438-190.68 0.33-285.985 0.141-8.25 16.147-23.078 24.94-23.219 106.879-1.603 213.781-0.966 320.684-1.131 18.151-0.047 26.496 8.533 26.496 26.354-0.047 94.362 0 188.723 0 283.109 0 15.723-5.728 25.812-23.502 25.718-43.303-0.212-86.583-0.071-127.057-0.071zM294.989 242.894c83.33 0.047 151.667-68.102 152.586-152.233 0.943-85.428-67.206-154.378-152.586-154.425-84.414 0-151.832 67.112-152.209 151.549-0.377 85.97 67.418 155.014 152.209 155.109zM295.814 12.494c42.148-0.071 75.621 34.864 75.056 78.214-0.566 41.606-33.968 75.315-75.056 75.786-41.959 0.471-76.494-34.369-76.423-77.106 0.071-43.35 33.379-76.847 76.423-76.894z" />
<glyph unicode="&#xe913;" glyph-name="vatangarantiv" horiz-adv-x="935" d="M873.783 568.88c0-244.369-163.465-457.686-406.362-571.832-242.908 114.135-406.362 327.463-406.362 571.832v207.185l108.745 122.886h595.245l108.756-121.216-0.023-208.854zM765.027 960h-595.233c-17.467 0-34.089-7.488-45.668-20.574l-108.814-122.886c-9.852-11.162-15.311-25.581-15.311-40.475v-207.185c0-258.869 169.144-499.134 441.458-627.073 8.229-3.871 17.096-5.819 25.963-5.819s17.746 1.947 25.952 5.819c272.314 127.928 441.458 368.205 441.458 627.073v208.843c0 15.033-5.564 29.557-15.624 40.776l-108.745 121.216c-11.579 12.901-28.073 20.284-45.436 20.284v0zM466.657 435.551l107.354 326.292h237.75l-230.066-567.949h-214.743l-253.073 567.949h253.073z" />
<glyph unicode="&#xe914;" glyph-name="disslikebutton" horiz-adv-x="1012" d="M347.236 344.079c-5.519 0-10.278 0-15.015 0-87.439 0-174.9-0.022-262.361-0.022-49.695 0-74.901 29.226-69.013 78.552 15.428 129.334 51.281 253.974 86.918 378.636 9.105 31.899 20.947 63.059 32.225 94.328 3.216 8.974 8.692 17.188 13.494 25.532 13.69 23.859 31.877 35.68 61.864 35.289 130.942-1.63 261.905-0.652 392.868-0.739 26.901-0.022 51.999-7.149 75.053-20.991 21.99-13.212 33.137-31.921 33.072-58.583-0.478-173.162-0.326-346.302 0-519.442 0-9.452-3.303-14.993-10.365-20.73-65.536-52.998-121.511-114.188-160.168-189.915-22.034-43.155-34.919-88.721-36.332-137.395-0.282-10.039-1.434-20.165-3.281-30.074-5.671-30.16-38.461-49.565-69.708-41.482-28.618 7.41-49.891 25.119-66.318 48.956-22.012 31.986-30.943 68.383-34.463 106.387-7.736 83.55 9.474 164.101 29.921 244.239 0.543 2.043 0.913 4.15 1.608 7.453zM767.071 656.853c0 88.33-0.022 176.66 0 264.991 0 25.011 8.8 33.789 34.246 33.833 45.262 0.087 90.525 0.109 135.787-0.022 27.075-0.087 38.939-12.408 40.547-38.939 4.585-76.27 9.887-152.497 14.733-228.746 3.955-62.233 7.605-124.488 11.495-186.721 2.173-34.615 4.585-69.23 6.823-103.845 0.456-7.019 1.195-14.059 0.847-21.056-0.891-18.253-13.776-31.812-32.029-31.964-57.561-0.456-115.144-0.695-172.684 0.109-24.598 0.348-39.352 17.405-39.656 43.437-0.413 34.724-0.109 69.426-0.109 104.149-0.022 54.91 0 109.842 0 164.774z" />
<glyph unicode="&#xe915;" glyph-name="likebutton" horiz-adv-x="1012" d="M664.421 547.423c5.519 0 10.278 0 15.015 0 87.439 0 174.9 0.022 262.361 0.022 49.695 0 74.901-29.226 69.013-78.552-15.428-129.334-51.281-253.974-86.918-378.636-9.105-31.899-20.947-63.059-32.225-94.328-3.216-8.974-8.692-17.188-13.494-25.532-13.69-23.837-31.877-35.658-61.864-35.267-130.942 1.63-261.905 0.652-392.868 0.739-26.901 0.022-51.999 7.149-75.053 20.991-21.99 13.212-33.137 31.921-33.072 58.583 0.478 173.162 0.326 346.302 0 519.442 0 9.452 3.303 14.993 10.365 20.73 65.536 52.998 121.511 114.188 160.168 189.915 22.034 43.155 34.919 88.721 36.332 137.395 0.282 10.039 1.434 20.165 3.281 30.074 5.671 30.16 38.461 49.565 69.708 41.482 28.618-7.41 49.891-25.119 66.318-48.956 22.012-31.986 30.943-68.383 34.463-106.387 7.736-83.55-9.474-164.101-29.921-244.239-0.565-2.064-0.913-4.172-1.608-7.475zM244.587 234.649c0-88.33 0.022-176.66 0-264.991 0-25.011-8.8-33.789-34.246-33.833-45.262-0.087-90.525-0.109-135.787 0.022-27.075 0.087-38.939 12.408-40.547 38.939-4.585 76.27-9.887 152.497-14.733 228.746-3.955 62.233-7.605 124.488-11.495 186.721-2.173 34.615-4.585 69.23-6.823 103.845-0.456 7.019-1.195 14.059-0.847 21.056 0.891 18.253 13.776 31.812 32.029 31.964 57.561 0.456 115.144 0.695 172.684-0.109 24.598-0.348 39.352-17.405 39.656-43.437 0.413-34.724 0.109-69.426 0.109-104.149 0-54.91 0-109.842 0-164.774z" />
<glyph unicode="&#xe916;" glyph-name="checkmark" d="M0 409.6l102.4 102.4 256-256 563.2 563.2 102.4-102.4-665.6-665.6z" />
<glyph unicode="&#xe917;" glyph-name="list" d="M51.2 768h102.4v-102.4h-102.4v102.4zM256 768h716.8v-102.4h-716.8v102.4zM51.2 512h102.4v-102.4h-102.4v102.4zM256 512h716.8v-102.4h-716.8v102.4zM51.2 256h102.4v-102.4h-102.4v102.4zM256 256h716.8v-102.4h-716.8v102.4z" />
<glyph unicode="&#xe918;" glyph-name="location" d="M512-51.2s-358.4 467.456-358.4 665.6c0 197.939 160.461 358.4 358.4 358.4s358.4-160.461 358.4-358.4v0c0-198.144-358.4-665.6-358.4-665.6zM512 512c56.554 0 102.4 45.846 102.4 102.4s-45.846 102.4-102.4 102.4v0c-56.554 0-102.4-45.846-102.4-102.4s45.846-102.4 102.4-102.4v0z" />
<glyph unicode="&#xe919;" glyph-name="notification" d="M204.8 563.2c0 0.040 0 0.087 0 0.135 0 133.528 85.193 247.159 204.189 289.503l2.147 0.666c-0.815 4.852-1.28 10.442-1.28 16.14 0 56.554 45.846 102.4 102.4 102.4s102.4-45.846 102.4-102.4c0-5.699-0.465-11.288-1.361-16.734l0.081 0.593c120.875-43.156 205.824-156.653 205.824-289.991 0-0.11 0-0.22 0-0.33v0.017-307.2l153.6-102.4v-51.2h-921.6v51.2l153.6 102.4v307.2zM614.4 51.2c0-56.554-45.846-102.4-102.4-102.4s-102.4 45.846-102.4 102.4v0h204.8z" />
<glyph unicode="&#xe91a;" glyph-name="heart" d="M512 807.936l-31.232 30.72c-50.338 47.679-118.487 76.997-193.485 76.997-155.523 0-281.6-126.077-281.6-281.6 0-74.87 29.219-142.916 76.875-193.356l-0.126 0.135 429.568-429.568 429.568 430.080c47.53 50.306 76.749 118.352 76.749 193.221 0 155.523-126.077 281.6-281.6 281.6-74.997 0-143.147-29.318-193.613-77.118l0.129 0.121-31.232-31.232z" />
<glyph unicode="&#xe91b;" glyph-name="stars-score" horiz-adv-x="1061" d="M1059.006 572.359c-6.242 19.645-24.602 33.232-45.349 33.354h-334.336l-103.245 320.872c-6.304 19.829-24.664 33.232-45.41 33.354-20.808-0.122-39.168-13.709-45.41-33.354l-103.306-320.872h-334.153c-20.808 0-39.168-13.586-45.533-33.293-6.365-19.829 0.612-41.616 17.381-53.917l270.321-198.35-103.183-320.933c-8.201-25.337 5.692-52.632 31.090-60.833 4.651-1.408 9.486-2.264 14.321-2.264 10.098 0 19.89 3.366 28.030 9.241l270.382 198.227 270.443-198.227c16.646-12.24 39.413-12.24 56.12 0 16.769 12.24 23.746 33.966 17.381 53.734l-103.245 321.056 270.321 198.411c16.891 12.424 23.929 34.027 17.381 53.795z" />
<glyph unicode="&#xe91c;" glyph-name="information-outline" d="M150.016 98.816c-96.436 93.233-156.308 223.762-156.308 368.276 0 282.77 229.23 512 512 512 144.514 0 275.043-59.872 368.137-156.164l0.138-0.144c88.925-91.979 143.724-217.436 143.724-355.692 0-282.77-229.23-512-512-512-138.256 0-263.713 54.799-355.836 143.863l0.144-0.138zM801.792 171.008c74.164 74.164 120.036 176.621 120.036 289.792 0 226.342-183.486 409.828-409.828 409.828-113.171 0-215.628-45.872-289.792-120.036v0c-74.164-74.164-120.036-176.621-120.036-289.792 0-226.342 183.486-409.828 409.828-409.828 113.171 0 215.628 45.872 289.792 120.036v0zM460.8 409.6v102.4h102.4v-307.2h-102.4v204.8zM460.8 716.8h102.4v-102.4h-102.4v102.4z" />
<glyph unicode="&#xe91d;" glyph-name="icon-grid-3" d="M0 778.752h291.84v-291.84h-291.84v291.84zM0 412.16h291.84v-291.84h-291.84v291.84zM366.592 778.752h291.84v-291.84h-291.84v291.84zM733.184 778.752h291.84v-291.84h-291.84v291.84zM366.592 412.16h291.84v-291.84h-291.84v291.84zM733.184 412.16h291.84v-291.84h-291.84v291.84z" />
<glyph unicode="&#xe91e;" glyph-name="icon-grid-4" d="M0 686.592h215.040v-215.040h-215.040v215.040zM0 417.28h215.040v-215.040h-215.040v215.040zM269.312 686.592h215.040v-215.040h-215.040v215.040zM539.648 686.592h215.040v-215.040h-215.040v215.040zM808.96 686.592h215.040v-215.040h-215.040v215.040zM269.312 417.28h215.040v-215.040h-215.040v215.040zM539.648 417.28h215.040v-215.040h-215.040v215.040zM808.96 417.28h215.040v-215.040h-215.040v215.040z" />
<glyph unicode="&#xe91f;" glyph-name="filter" d="M614.4 358.4l409.6 409.6v204.8h-1024v-204.8l409.6-409.6v-409.6l204.8 204.8v204.8z" />
<glyph unicode="&#xe920;" glyph-name="sort" d="M128 384.667v84h512v-84h-512zM128 682.667h768v-86h-768v86zM128 170.667v86h256v-86h-256z" />
<glyph unicode="&#xe94d;" glyph-name="history" horiz-adv-x="1088" d="M640 896c247.424 0 448-200.576 448-448s-200.576-448-448-448v96c94.024 0 182.418 36.614 248.902 103.098s103.098 154.878 103.098 248.902c0 94.022-36.614 182.418-103.098 248.902s-154.878 103.098-248.902 103.098c-94.022 0-182.418-36.614-248.902-103.098-51.14-51.138-84.582-115.246-97.306-184.902h186.208l-224-256-224 256h164.57c31.060 217.102 217.738 384 443.43 384zM832 512v-128h-256v320h128v-192z" />
<glyph unicode="&#xe986;" glyph-name="search" d="M992.262 88.604l-242.552 206.294c-25.074 22.566-51.89 32.926-73.552 31.926 57.256 67.068 91.842 154.078 91.842 249.176 0 212.078-171.922 384-384 384-212.076 0-384-171.922-384-384s171.922-384 384-384c95.098 0 182.108 34.586 249.176 91.844-1-21.662 9.36-48.478 31.926-73.552l206.294-242.552c35.322-39.246 93.022-42.554 128.22-7.356s31.892 92.898-7.354 128.22zM384 320c-141.384 0-256 114.616-256 256s114.616 256 256 256 256-114.616 256-256-114.614-256-256-256z" />
<glyph unicode="&#xea90;" glyph-name="facebook" d="M608 768h160v192h-160c-123.514 0-224-100.486-224-224v-96h-128v-192h128v-512h192v512h160l32 192h-192v96c0 17.346 14.654 32 32 32z" />
<glyph unicode="&#xea92;" glyph-name="instagram" d="M512 867.8c136.8 0 153-0.6 206.8-3 50-2.2 77-10.6 95-17.6 23.8-9.2 41-20.4 58.8-38.2 18-18 29-35 38.4-58.8 7-18 15.4-45.2 17.6-95 2.4-54 3-70.2 3-206.8s-0.6-153-3-206.8c-2.2-50-10.6-77-17.6-95-9.2-23.8-20.4-41-38.2-58.8-18-18-35-29-58.8-38.4-18-7-45.2-15.4-95-17.6-54-2.4-70.2-3-206.8-3s-153 0.6-206.8 3c-50 2.2-77 10.6-95 17.6-23.8 9.2-41 20.4-58.8 38.2-18 18-29 35-38.4 58.8-7 18-15.4 45.2-17.6 95-2.4 54-3 70.2-3 206.8s0.6 153 3 206.8c2.2 50 10.6 77 17.6 95 9.2 23.8 20.4 41 38.2 58.8 18 18 35 29 58.8 38.4 18 7 45.2 15.4 95 17.6 53.8 2.4 70 3 206.8 3zM512 960c-139 0-156.4-0.6-211-3-54.4-2.4-91.8-11.2-124.2-23.8-33.8-13.2-62.4-30.6-90.8-59.2-28.6-28.4-46-57-59.2-90.6-12.6-32.6-21.4-69.8-23.8-124.2-2.4-54.8-3-72.2-3-211.2s0.6-156.4 3-211c2.4-54.4 11.2-91.8 23.8-124.2 13.2-33.8 30.6-62.4 59.2-90.8 28.4-28.4 57-46 90.6-59 32.6-12.6 69.8-21.4 124.2-23.8 54.6-2.4 72-3 211-3s156.4 0.6 211 3c54.4 2.4 91.8 11.2 124.2 23.8 33.6 13 62.2 30.6 90.6 59s46 57 59 90.6c12.6 32.6 21.4 69.8 23.8 124.2 2.4 54.6 3 72 3 211s-0.6 156.4-3 211c-2.4 54.4-11.2 91.8-23.8 124.2-12.6 34-30 62.6-58.6 91-28.4 28.4-57 46-90.6 59-32.6 12.6-69.8 21.4-124.2 23.8-54.8 2.6-72.2 3.2-211.2 3.2v0zM512 711c-145.2 0-263-117.8-263-263s117.8-263 263-263 263 117.8 263 263c0 145.2-117.8 263-263 263zM512 277.4c-94.2 0-170.6 76.4-170.6 170.6s76.4 170.6 170.6 170.6c94.2 0 170.6-76.4 170.6-170.6s-76.4-170.6-170.6-170.6zM846.8 721.4c0-33.91-27.49-61.4-61.4-61.4s-61.4 27.49-61.4 61.4c0 33.91 27.49 61.4 61.4 61.4s61.4-27.49 61.4-61.4z" />
<glyph unicode="&#xea96;" glyph-name="twitter" d="M1024 733.6c-37.6-16.8-78.2-28-120.6-33 43.4 26 76.6 67.2 92.4 116.2-40.6-24-85.6-41.6-133.4-51-38.4 40.8-93 66.2-153.4 66.2-116 0-210-94-210-210 0-16.4 1.8-32.4 5.4-47.8-174.6 8.8-329.4 92.4-433 219.6-18-31-28.4-67.2-28.4-105.6 0-72.8 37-137.2 93.4-174.8-34.4 1-66.8 10.6-95.2 26.2 0-0.8 0-1.8 0-2.6 0-101.8 72.4-186.8 168.6-206-17.6-4.8-36.2-7.4-55.4-7.4-13.6 0-26.6 1.4-39.6 3.8 26.8-83.4 104.4-144.2 196.2-146-72-56.4-162.4-90-261-90-17 0-33.6 1-50.2 3 93.2-59.8 203.6-94.4 322.2-94.4 386.4 0 597.8 320.2 597.8 597.8 0 9.2-0.2 18.2-0.6 27.2 41 29.4 76.6 66.4 104.8 108.6z" />
<glyph unicode="&#xea9d;" glyph-name="youtube" d="M1013.8 652.8c0 0-10 70.6-40.8 101.6-39 40.8-82.6 41-102.6 43.4-143.2 10.4-358.2 10.4-358.2 10.4h-0.4c0 0-215 0-358.2-10.4-20-2.4-63.6-2.6-102.6-43.4-30.8-31-40.6-101.6-40.6-101.6s-10.2-82.8-10.2-165.8v-77.6c0-82.8 10.2-165.8 10.2-165.8s10-70.6 40.6-101.6c39-40.8 90.2-39.4 113-43.8 82-7.8 348.2-10.2 348.2-10.2s215.2 0.4 358.4 10.6c20 2.4 63.6 2.6 102.6 43.4 30.8 31 40.8 101.6 40.8 101.6s10.2 82.8 10.2 165.8v77.6c-0.2 82.8-10.4 165.8-10.4 165.8zM406.2 315.2v287.8l276.6-144.4-276.6-143.4z" />
<glyph unicode="&#xeac9;" glyph-name="linkedin" d="M928 960h-832c-52.8 0-96-43.2-96-96v-832c0-52.8 43.2-96 96-96h832c52.8 0 96 43.2 96 96v832c0 52.8-43.2 96-96 96zM384 128h-128v448h128v-448zM320 640c-35.4 0-64 28.6-64 64s28.6 64 64 64c35.4 0 64-28.6 64-64s-28.6-64-64-64zM832 128h-128v256c0 35.4-28.6 64-64 64s-64-28.6-64-64v-256h-128v448h128v-79.4c26.4 36.2 66.8 79.4 112 79.4 79.6 0 144-71.6 144-160v-288z" />
</font>
</defs>
</svg>
